<svg version="1.1" id="Layer_1" xmlns="http://www.w3.org/2000/svg" xmlns:xlink="http://www.w3.org/1999/xlink" x="0px" y="0px"
	 width="100%" viewBox="0 0 624 512" enable-background="new 0 0 624 512" xml:space="preserve">
<path fill="#000000" opacity="1.000000" stroke="none" 
	d="
M131.234467,266.553101 
	C128.946335,258.607239 127.888107,250.902939 127.685783,243.027893 
	C127.583466,239.045303 128.668320,237.573715 132.995682,237.422867 
	C149.806915,236.836761 166.613861,238.350143 183.427322,237.268005 
	C186.719742,237.056122 187.736237,236.256607 187.728088,233.010498 
	C187.644424,199.683655 187.635086,166.356384 187.739105,133.029648 
	C187.750565,129.353989 186.585602,128.014725 182.851578,128.119019 
	C172.660599,128.403625 162.720123,130.601242 152.642334,131.683090 
	C144.215744,132.587662 135.671677,133.524902 127.550476,129.854584 
	C121.102325,126.940399 116.966660,122.049500 116.919357,114.846558 
	C116.872330,107.682434 121.369766,103.326859 127.598732,100.536171 
	C131.614944,98.736832 135.820190,97.685844 140.212677,97.960869 
	C146.186005,98.334862 152.167084,98.777504 158.101807,99.529999 
	C166.523682,100.597847 174.910049,101.841270 183.428543,102.004143 
	C186.786072,102.068329 188.433548,101.262878 189.120377,97.569534 
	C190.742432,88.846756 193.703629,80.487144 198.612076,73.019424 
	C204.524078,64.024940 212.297440,58.662743 223.795761,58.699326 
	C286.782501,58.899723 349.770264,58.770016 412.757690,58.757122 
	C421.328369,58.755367 427.628143,63.178757 432.719635,69.487640 
	C438.913574,77.162529 442.564423,86.131035 444.190552,95.770370 
	C445.030762,100.751022 447.157379,102.222046 452.117676,101.965096 
	C464.100525,101.344376 475.886963,99.105339 487.828827,98.169380 
	C494.842407,97.619682 501.475647,98.193748 507.719788,101.468277 
	C518.352112,107.044052 519.363770,120.210846 509.750214,127.392776 
	C501.235626,133.753693 491.459320,132.695221 481.847717,131.783478 
	C471.592224,130.810654 461.489014,128.607101 451.152618,128.045395 
	C446.563721,127.796005 445.036072,129.631210 444.309875,133.703949 
	C442.467834,144.035004 438.495941,153.481125 431.730316,161.624603 
	C426.427429,168.007446 419.842102,171.547485 411.307343,171.258331 
	C404.816132,171.038406 398.299622,171.460251 391.816528,171.142975 
	C387.304871,170.922211 386.181244,172.678177 386.217377,176.950958 
	C386.396454,198.112076 386.281525,219.275574 386.292297,240.438232 
	C386.298889,253.448044 383.912659,265.952881 378.117310,277.654114 
	C371.947845,290.110748 362.754913,297.319336 347.875427,297.238129 
	C287.722260,296.909821 227.564178,296.814514 167.412689,297.266785 
	C151.511566,297.386322 141.647141,290.247040 135.279205,276.657379 
	C133.799057,273.498627 132.661209,270.179535 131.234467,266.553101 
M194.029846,141.500000 
	C194.023849,160.987625 194.019775,180.475266 194.011063,199.962891 
	C194.006149,210.956100 194.040543,221.949661 193.953705,232.942261 
	C193.929993,235.943115 194.557816,237.532471 198.156631,237.308578 
	C202.623199,237.030685 207.134735,237.593323 211.626068,237.577240 
	C247.598419,237.448502 283.570526,237.258575 319.542816,237.114319 
	C325.940399,237.088654 326.203918,237.438171 326.319519,243.902664 
	C326.524963,255.389832 329.039276,266.313507 334.480835,276.486084 
	C338.539856,284.074097 344.222687,290.294495 353.266510,290.189972 
	C362.275818,290.085876 367.785919,283.762970 371.898315,276.197845 
	C378.294098,264.432220 380.148987,251.738831 380.133209,238.572479 
	C380.085205,198.430710 380.078278,158.288818 380.125702,118.147072 
	C380.147614,99.626923 383.282990,81.994606 395.420685,67.072800 
	C395.667816,66.769012 395.566650,66.181946 395.665497,65.448845 
	C393.853851,65.358849 392.218811,65.206734 390.583740,65.206635 
	C334.618195,65.203445 278.652557,65.265312 222.687225,65.155991 
	C216.117859,65.143158 211.073380,67.619843 206.997955,72.432220 
	C200.110123,80.565575 196.724625,90.229279 195.099579,100.596718 
	C193.022568,113.847672 194.453400,127.200310 194.029846,141.500000 
M231.500000,244.064774 
	C200.398209,244.108002 169.296432,244.151245 138.194641,244.194473 
	C137.967896,244.772598 137.741135,245.350723 137.514389,245.928848 
	C142.954330,246.819977 144.066086,249.304214 142.444702,254.158646 
	C141.525452,256.910889 144.193893,259.007782 147.405609,258.942322 
	C151.456619,258.859772 155.350845,259.724518 159.231766,260.675232 
	C160.672409,261.028137 162.312302,261.494720 162.459442,263.335052 
	C162.611786,265.240509 161.061676,265.954468 159.589874,266.237457 
	C154.797729,267.158783 150.587723,269.769104 145.900085,270.881348 
	C142.387589,271.714783 141.426224,273.475769 142.951279,276.620117 
	C145.168411,281.191315 147.980042,285.226013 152.769730,287.543518 
	C155.812912,289.016022 158.868088,289.956635 162.330521,289.952942 
	C215.979187,289.895630 269.627960,289.936493 323.276611,289.861267 
	C326.626740,289.856567 330.244232,290.724579 333.346558,288.467804 
	C333.303436,287.792664 333.405487,287.244202 333.215912,286.828857 
	C332.665222,285.622009 332.082184,284.413727 331.362640,283.302643 
	C324.860779,273.262573 321.839813,262.001770 320.920166,250.319046 
	C320.507751,245.080322 318.650299,244.011887 313.972717,244.035721 
	C286.815796,244.174149 259.657715,244.080139 231.500000,244.064774 
M406.639740,116.368820 
	C406.477203,111.278076 407.185028,106.370132 410.035156,102.016800 
	C412.978821,97.520576 417.842865,96.082832 421.560974,99.276215 
	C426.838501,103.808876 432.435455,101.596275 438.892029,101.659454 
	C436.322205,88.169334 432.861359,76.029182 421.591766,67.936317 
	C416.384094,64.196609 410.681244,64.242928 405.148651,67.587624 
	C401.525452,69.777985 398.640717,72.741295 396.442627,76.368927 
	C385.968628,93.655159 384.414703,112.331024 387.959503,131.741455 
	C389.498901,140.170883 392.456390,148.099121 397.418671,155.173737 
	C404.429871,165.169556 414.697784,167.703537 423.123932,160.959702 
	C433.238434,152.864578 436.522247,141.266022 438.893860,128.412292 
	C432.544037,128.515167 426.946411,126.170937 421.670135,130.689651 
	C418.043549,133.795563 413.431915,132.628311 410.387787,128.516296 
	C407.927338,125.192696 407.015106,121.323204 406.639740,116.368820 
z"/>
<path fill="#000000" opacity="1.000000" stroke="none" 
	d="
M260.795166,369.999084 
	C260.795013,358.507538 260.825348,347.515625 260.775787,336.524048 
	C260.761597,333.374786 261.176392,330.808167 265.228027,330.885925 
	C269.037872,330.959076 269.309204,333.477692 269.305023,336.364716 
	C269.282410,352.019318 269.296509,367.674011 269.291168,383.328644 
	C269.286072,398.273834 256.873810,406.199524 243.403946,399.536560 
	C240.040070,397.872559 237.780609,397.762939 234.384293,399.538269 
	C221.724075,406.155853 208.428116,398.600922 208.076691,384.477966 
	C207.679138,368.500732 207.985657,352.506073 207.972672,336.519012 
	C207.970123,333.383575 208.552032,330.882751 212.537033,330.867218 
	C216.892838,330.850250 217.161514,333.651184 217.156448,336.919373 
	C217.131973,352.740662 217.138947,368.562134 217.183228,384.383392 
	C217.203461,391.610687 219.196381,393.752991 225.698959,393.788300 
	C232.286255,393.824066 234.655151,391.306976 234.661423,384.128662 
	C234.674744,368.811157 234.589493,353.493225 234.697021,338.176514 
	C234.718109,335.170135 233.303619,330.948883 238.832413,330.898956 
	C244.190079,330.850555 243.236572,334.833130 243.246994,338.009521 
	C243.297806,353.497650 243.228806,368.986115 243.266785,384.474335 
	C243.284073,391.524780 245.470963,393.797241 251.942123,393.792694 
	C258.295013,393.788239 260.684296,391.301544 260.766907,384.488312 
	C260.823425,379.825745 260.789032,375.162048 260.795166,369.999084 
z"/>
<path fill="#000000" opacity="1.000000" stroke="none" 
	d="
M124.110001,384.827942 
	C119.446396,374.133759 114.944168,363.782745 110.361099,353.245880 
	C108.641975,354.665192 109.329544,356.258484 109.323128,357.602234 
	C109.264999,369.763184 109.286835,381.924591 109.310455,394.085815 
	C109.315910,396.894775 109.359612,399.439545 105.333000,399.502106 
	C101.346169,399.564026 100.705429,397.453033 100.719048,394.133179 
	C100.797630,374.974609 100.759850,355.815613 100.770058,336.656738 
	C100.771400,334.127258 100.572701,331.472382 104.099541,330.970062 
	C107.337303,330.508972 109.388596,331.646637 110.720772,334.811493 
	C115.693810,346.625702 120.855705,358.360504 125.967331,370.116150 
	C126.867455,372.186249 127.866272,374.213409 129.920731,376.005615 
	C129.920731,364.258209 129.917755,352.510803 129.923828,340.763397 
	C129.924774,338.931610 129.966888,337.099792 129.990189,335.268005 
	C130.025620,332.481384 131.271332,330.926941 134.218719,330.872284 
	C137.281769,330.815491 138.960861,332.150482 138.979538,335.278809 
	C139.015366,341.275879 139.022812,347.273193 139.023666,353.270386 
	C139.025543,366.597809 139.048492,379.925415 138.983124,393.252533 
	C138.970505,395.827423 139.441925,398.857758 135.518951,399.334229 
	C132.149338,399.743469 129.773788,398.847504 128.560913,395.287170 
	C127.382957,391.829346 125.720863,388.536438 124.110001,384.827942 
z"/>
<path fill="#000000" opacity="1.000000" stroke="none" 
	d="
M190.670837,337.815521 
	C193.040359,347.040375 191.798889,356.062286 192.046783,365.014557 
	C192.134521,368.183350 189.834366,368.788147 187.310013,368.820526 
	C181.487671,368.895172 175.663605,368.980774 169.842026,368.911774 
	C166.454971,368.871643 165.030731,370.278717 165.183258,373.708771 
	C165.375259,378.026917 165.098404,382.368195 165.345932,386.680969 
	C165.634430,391.707733 168.451828,393.813141 174.243958,393.774994 
	C180.051956,393.736694 182.556519,391.638092 182.918823,386.483643 
	C182.977097,385.654785 182.975281,384.820709 182.977051,383.989014 
	C182.984009,380.704285 184.874954,379.766602 187.846893,379.802673 
	C190.801575,379.838623 191.897751,381.249481 192.114853,384.081787 
	C193.078934,396.658539 182.883743,404.012573 168.563599,400.976227 
	C161.569504,399.493256 157.295792,395.779358 156.720062,388.653564 
	C155.420731,372.571747 155.431351,356.432251 156.945511,340.345459 
	C157.309525,336.478180 159.914276,333.730652 163.134537,331.700745 
	C171.474808,326.443420 186.868866,328.726990 190.670837,337.815521 
M182.949570,348.593201 
	C182.947433,347.427551 182.969528,346.261292 182.939072,345.096405 
	C182.792603,339.492065 179.868027,336.573151 174.298752,336.453369 
	C168.767136,336.334412 165.356125,339.633301 165.232361,345.316711 
	C165.163483,348.479095 165.482574,351.671509 165.157867,354.801758 
	C164.645081,359.744934 166.745132,361.076630 171.449722,360.920288 
	C184.518066,360.486084 182.800415,362.678772 182.949570,348.593201 
z"/>
<path fill="#000000" opacity="1.000000" stroke="none" 
	d="
M399.602173,339.874756 
	C398.552032,342.248383 398.275482,344.387634 398.375336,346.568542 
	C398.513123,349.578217 397.458069,351.253601 394.116730,351.259155 
	C390.834473,351.264618 389.850525,349.707123 389.730072,346.655945 
	C389.296753,335.677094 395.055786,329.273651 405.945709,328.879486 
	C417.626099,328.456726 424.119904,334.318542 424.183533,345.584534 
	C424.273773,361.559235 424.247375,377.534851 424.198059,393.509827 
	C424.191803,395.531433 425.106537,398.160767 422.349152,399.148590 
	C419.576782,400.141815 418.887543,397.226715 417.166992,395.546265 
	C412.910767,399.367798 408.307373,401.909363 402.351501,401.432312 
	C394.080841,400.769836 389.194397,396.145935 388.826355,387.756348 
	C388.644165,383.604401 388.617767,379.431946 388.796783,375.280609 
	C389.191101,366.134644 394.125549,361.296753 403.269867,360.839539 
	C415.024231,360.251831 415.060059,360.251556 414.970490,348.245728 
	C414.943756,344.662567 415.707275,340.774353 412.079559,338.197449 
	C408.393188,335.578857 404.247955,336.032379 399.602173,339.874756 
M397.760773,373.550201 
	C397.088287,378.337555 397.146942,383.144073 397.620758,387.931122 
	C398.068329,392.452362 400.832367,394.194092 405.206116,393.722534 
	C408.350677,393.383545 410.840576,391.874207 412.814240,389.474426 
	C414.764496,387.103149 416.043823,373.266296 414.568329,370.668732 
	C414.332184,370.252991 414.013489,369.833282 413.629913,369.560181 
	C410.457581,367.301331 400.233459,369.413696 397.760773,373.550201 
z"/>
<path fill="#000000" opacity="1.000000" stroke="none" 
	d="
M338.724792,389.908691 
	C338.721954,371.940765 338.866119,354.457581 338.623962,336.979767 
	C338.555908,332.068726 340.332825,330.434174 345.023132,330.781189 
	C348.998077,331.075287 353.016632,330.726562 357.004547,330.909363 
	C367.157074,331.374695 372.802277,336.798615 373.028290,346.942047 
	C373.306427,359.421844 373.304443,371.917603 373.016693,384.397095 
	C372.802460,393.687622 367.055542,399.073547 357.747894,399.367401 
	C353.257141,399.509186 348.730499,399.087860 344.271149,399.489105 
	C339.765411,399.894592 338.126404,398.226410 338.706970,393.888702 
	C338.860168,392.743988 338.727081,391.560944 338.724792,389.908691 
M353.479675,339.065887 
	C350.689209,339.324066 347.182678,338.168701 347.217804,343.130157 
	C347.323853,358.112915 347.246857,373.096924 347.268188,388.080414 
	C347.270050,389.389008 347.268372,390.701843 348.775848,391.476807 
	C355.787567,395.081421 363.905670,390.249908 363.925964,382.376587 
	C363.954742,371.222595 363.948853,360.068390 363.927429,348.914337 
	C363.911987,340.869690 362.372101,339.304901 353.479675,339.065887 
z"/>
<path fill="#000000" opacity="1.000000" stroke="none" 
	d="
M315.397339,370.654602 
	C318.280792,373.772552 320.376160,376.941589 321.106110,380.836243 
	C322.696686,389.322876 320.487732,395.924194 315.068237,399.010376 
	C308.047455,403.008423 295.123291,402.227997 289.903076,397.490814 
	C286.351715,394.268036 283.943665,382.907318 285.903595,378.713715 
	C286.904785,376.571472 288.820435,376.837250 290.632874,376.892914 
	C292.535004,376.951355 293.862396,377.875244 294.026672,379.843719 
	C294.206177,381.994995 294.120361,384.166931 294.217285,386.326874 
	C294.469055,391.937683 297.167358,393.938812 304.200195,393.779358 
	C310.073853,393.646149 312.802551,391.116516 312.873749,385.859772 
	C312.921692,382.318298 311.644104,379.440735 309.125092,376.951538 
	C303.325958,371.220947 297.737488,365.272888 291.840424,359.646942 
	C286.207306,354.272766 284.971832,347.719727 285.938171,340.441620 
	C286.402802,336.942535 288.433624,334.332092 291.190826,332.261536 
	C297.181152,327.763092 309.332367,327.743469 315.334076,332.200806 
	C319.580444,335.354523 322.455933,347.464386 320.054718,352.053345 
	C319.073120,353.929352 317.367279,353.664001 315.699921,353.576477 
	C313.927765,353.483459 312.283569,353.154083 312.062897,350.995026 
	C311.894287,349.344940 311.813446,347.669037 311.891724,346.013947 
	C312.087708,341.870422 311.440247,338.201813 306.661316,337.110962 
	C302.431122,336.145355 297.941284,336.107086 295.391724,340.089417 
	C292.997559,343.829041 293.537537,348.192657 296.394012,351.754333 
	C298.253143,354.072357 300.613953,355.986847 302.739594,358.092651 
	C306.877411,362.191742 311.007904,366.298218 315.397339,370.654602 
z"/>
<path fill="#000000" opacity="1.000000" stroke="none" 
	d="
M530.285767,330.997131 
	C535.076599,330.241852 536.922302,332.415466 536.844971,336.535248 
	C536.644958,347.192596 536.614624,357.861206 536.045959,368.500153 
	C535.754883,373.947113 532.430054,377.871216 527.148865,379.426636 
	C523.707520,380.440155 522.810181,382.415863 522.981018,385.648010 
	C523.147827,388.804108 522.984985,391.978027 522.955444,395.144012 
	C522.923096,398.608765 520.899292,399.753326 517.744690,399.670654 
	C514.750061,399.592163 513.635559,397.971619 513.771851,395.151764 
	C513.836182,393.821960 513.687134,392.480316 513.775574,391.153442 
	C514.175171,385.157227 514.262024,379.945099 506.377258,377.942352 
	C501.851501,376.792786 499.957733,371.763275 499.874298,366.998993 
	C499.690460,356.502441 499.822906,346.000732 499.760742,335.501526 
	C499.742432,332.409302 501.037720,330.883301 504.214478,330.857025 
	C507.483398,330.829926 508.610596,332.552246 508.617737,335.548126 
	C508.640320,345.034210 508.729370,354.520111 508.762543,364.006195 
	C508.784882,370.397064 511.011261,372.656097 517.511353,372.787537 
	C524.373108,372.926300 527.624023,370.259216 527.669556,364.075989 
	C527.730957,355.745361 527.419373,347.410156 527.584961,339.083221 
	C527.639404,336.345612 526.235718,332.903381 530.285767,330.997131 
z"/>
<path fill="#000000" opacity="1.000000" stroke="none" 
	d="
M478.402222,337.325928 
	C478.421417,355.506958 478.421417,373.269806 478.421417,391.088715 
	C483.497040,392.394958 487.987823,391.575500 492.415070,391.777374 
	C495.276703,391.907898 497.263763,392.586304 497.228882,396.007019 
	C497.195404,399.291229 495.063385,399.813568 492.560028,399.818451 
	C486.252106,399.830780 479.943359,399.790039 473.636353,399.686615 
	C471.065186,399.644470 469.740692,398.338074 469.744751,395.604126 
	C469.774750,375.474152 469.761688,355.344086 469.721802,335.214111 
	C469.716156,332.364532 470.831268,330.916870 473.830719,330.863708 
	C478.263062,330.785156 478.453674,333.701477 478.402222,337.325928 
z"/>
<path fill="#000000" opacity="1.000000" stroke="none" 
	d="
M445.983154,399.464325 
	C442.705078,399.636932 441.935577,397.889313 441.937347,395.378265 
	C441.951447,375.438324 441.957031,355.498352 441.950256,335.558411 
	C441.949249,332.581177 443.119293,330.861938 446.352173,330.845459 
	C449.455200,330.829681 451.008240,332.247986 451.008759,335.331451 
	C451.012054,355.271088 451.000946,375.210754 451.006714,395.150391 
	C451.007629,398.310547 449.440033,399.706451 445.983154,399.464325 
z"/>
<path fill="#000000" opacity="1.000000" stroke="none" 
	d="
M169.822174,457.128784 
	C171.180511,448.761993 166.208832,442.970917 162.639236,436.500610 
	C171.447144,432.513092 170.549545,441.963135 174.390625,444.619232 
	C178.886475,443.413971 176.623154,435.565247 184.335358,435.597382 
	C177.298538,442.996918 174.349594,450.700714 176.563049,459.868927 
	C173.372192,460.546417 170.096130,463.221985 169.822174,457.128784 
z"/>
<path fill="#000000" opacity="1.000000" stroke="none" 
	d="
M267.261475,460.230103 
	C262.159454,458.839844 260.109406,455.731964 260.439606,450.561798 
	C260.727173,446.058807 262.424866,444.025146 267.019745,443.050354 
	C267.022064,446.862000 265.669281,450.528595 266.221497,454.266022 
	C266.483337,456.038269 266.357239,458.381897 268.849060,458.334808 
	C271.028015,458.293579 271.050354,455.975372 271.149536,454.459839 
	C271.321503,451.831421 271.038361,449.172150 270.927002,446.526611 
	C270.838501,444.424408 271.520264,442.918884 273.859833,442.715515 
	C276.330231,442.500763 277.055817,443.889404 276.961670,446.091095 
	C276.897797,447.585419 276.952301,449.084991 276.960052,450.582153 
	C277.009521,460.132355 277.010071,460.132355 267.261475,460.230103 
z"/>
<path fill="#000000" opacity="1.000000" stroke="none" 
	d="
M372.620789,443.296204 
	C374.146393,446.464813 375.057068,449.571350 376.704712,452.219360 
	C378.692993,455.414795 378.077698,457.721619 375.253571,460.337982 
	C370.678711,456.066925 370.408173,449.570923 366.759796,444.561005 
	C366.466614,447.924774 366.239197,448.049438 368.685608,452.512878 
	C370.377655,455.599976 369.752258,457.717773 367.149109,460.341431 
	C362.626831,455.256744 362.203430,448.584167 357.940826,442.810211 
	C363.298187,442.526306 367.797638,442.211365 372.620789,443.296204 
z"/>
<path fill="#000000" opacity="1.000000" stroke="none" 
	d="
M329.837402,447.060120 
	C326.470551,444.007050 324.602417,440.750092 325.761108,435.410217 
	C331.831421,438.233612 333.393036,444.860321 338.134064,448.694305 
	C339.709900,447.048645 338.623749,444.955627 339.088531,443.220032 
	C339.756073,440.727386 337.222687,435.981079 340.436676,436.084351 
	C344.398376,436.211578 341.956848,441.021210 341.814087,443.425140 
	C341.495880,448.783600 343.005829,454.284698 340.841583,460.870270 
	C336.252686,456.376160 333.343079,451.696899 329.837402,447.060120 
z"/>
<path fill="#000000" opacity="1.000000" stroke="none" 
	d="
M439.085571,443.369202 
	C443.810822,446.602325 444.396088,450.820953 442.810272,455.436890 
	C441.688995,458.700623 439.338867,460.396088 435.580505,460.256592 
	C430.234589,460.058167 426.916718,456.998932 426.833008,451.654907 
	C426.751770,446.470398 430.233978,442.777405 435.306335,442.759979 
	C436.445374,442.756073 437.585297,443.027344 439.085571,443.369202 
M437.768524,449.861633 
	C437.622925,447.777802 437.813538,445.500000 435.110809,444.812347 
	C432.639893,446.328186 432.955658,448.674286 433.117737,450.693848 
	C433.323944,453.262878 431.624451,457.762634 435.033447,457.871307 
	C439.133453,458.001984 437.247467,453.339722 437.768524,449.861633 
z"/>
<path fill="#000000" opacity="1.000000" stroke="none" 
	d="
M196.468887,456.235748 
	C192.804001,460.506775 188.658127,461.558685 184.940948,459.449890 
	C181.582916,457.544800 179.954193,452.612213 181.321243,448.469635 
	C182.803940,443.976593 186.081573,442.331970 190.575150,442.737213 
	C196.080643,443.233673 198.672836,448.894928 196.468887,456.235748 
M186.850525,451.736908 
	C187.008286,453.381134 186.923218,455.097504 187.385056,456.651337 
	C187.966507,458.607605 189.366669,458.767914 190.768524,457.316864 
	C193.183640,454.816925 191.656967,446.622314 188.287552,444.848297 
	C186.769669,446.643341 187.071671,448.865723 186.850525,451.736908 
z"/>
<path fill="#000000" opacity="1.000000" stroke="none" 
	d="
M240.795349,437.108521 
	C245.777222,434.810333 246.885712,435.429230 246.958191,440.334808 
	C247.036652,445.646088 246.936356,450.959900 246.995895,456.271698 
	C247.025513,458.914734 246.489334,460.953522 243.247787,460.806885 
	C240.080078,460.663635 240.844818,458.379456 240.843353,456.440399 
	C240.838608,450.132843 240.775650,443.825348 240.795349,437.108521 
z"/>
<path fill="#000000" opacity="1.000000" stroke="none" 
	d="
M298.968842,466.032288 
	C304.550171,463.714722 305.341064,461.859924 303.010468,456.585327 
	C301.141602,452.355682 299.281372,448.122223 297.281555,443.582214 
	C300.574036,442.000061 303.199921,441.031281 304.293213,445.869354 
	C304.754883,447.912415 305.632568,449.918457 307.152100,451.467102 
	C310.738434,449.840851 307.994995,443.591766 313.955383,442.636749 
	C310.785614,450.318573 308.064758,457.194458 305.090515,463.958923 
	C304.121185,466.163544 302.401062,467.874573 299.271301,466.231995 
	C298.999634,466.001373 298.968842,466.032288 298.968842,466.032288 
z"/>
<path fill="#000000" opacity="1.000000" stroke="none" 
	d="
M295.027740,460.973785 
	C293.091339,460.843964 291.038574,461.339020 289.187012,459.830048 
	C288.773560,452.057068 289.963928,444.183319 289.006165,436.077850 
	C292.722595,434.748901 294.909302,435.542145 294.518951,439.836029 
	C293.901154,446.631683 295.029694,453.357178 295.049133,460.561462 
	C295.000000,461.001831 295.027740,460.973785 295.027740,460.973785 
z"/>
<path fill="#000000" opacity="1.000000" stroke="none" 
	d="
M419.673096,459.719177 
	C418.404572,460.132507 417.453430,460.588104 416.460297,459.734039 
	C421.067993,452.062866 421.289978,444.356384 416.587189,436.639771 
	C420.462952,435.813782 423.228607,437.557953 425.118317,442.148926 
	C427.932220,448.985016 425.951691,455.721558 419.673096,459.719177 
z"/>
<path fill="#000000" opacity="1.000000" stroke="none" 
	d="
M410.646729,460.700836 
	C408.415009,460.654785 407.328064,460.242371 407.406006,457.799591 
	C407.633270,450.674500 407.486725,443.537537 407.486725,436.520905 
	C409.350311,435.093384 411.077423,435.577606 413.266022,436.089142 
	C413.266022,443.613831 413.265472,451.039185 413.266541,458.464539 
	C413.266754,459.974426 412.195679,460.376160 410.646729,460.700836 
z"/>
<path fill="#000000" opacity="1.000000" stroke="none" 
	d="
M252.874466,451.602417 
	C252.992310,446.068787 253.944565,440.821686 249.432220,436.446411 
	C256.184265,436.418182 259.322815,440.473358 259.331207,448.264526 
	C259.339111,455.610779 256.138580,459.662354 249.858917,459.735260 
	C251.214096,457.195770 253.256134,455.031281 252.874466,451.602417 
z"/>
<path fill="#000000" opacity="1.000000" stroke="none" 
	d="
M224.199921,457.821899 
	C222.513123,460.934265 222.513123,460.934265 218.327606,459.752655 
	C218.708511,454.419037 218.710312,449.021942 218.256516,443.559845 
	C221.120453,441.662903 224.099792,443.161987 226.957596,443.115265 
	C228.936539,443.082886 230.496323,444.164886 230.643433,446.353149 
	C230.715454,447.424591 229.910736,448.173981 228.832275,448.411041 
	C226.035004,449.026001 226.278076,446.640839 225.564865,444.642578 
	C223.081100,448.984802 224.371704,453.300385 224.199921,457.821899 
z"/>
<path fill="#000000" opacity="1.000000" stroke="none" 
	d="
M457.982117,453.941254 
	C457.484161,457.109985 456.367859,459.726776 451.983276,460.111206 
	C454.831085,455.090607 450.828369,454.405243 447.896606,453.060822 
	C445.378510,451.906097 443.803436,450.087189 444.065491,447.256409 
	C444.293701,444.791290 445.854523,443.455872 448.435883,443.349884 
	C449.478912,444.700317 447.143707,446.853180 449.407593,447.753082 
	C452.221161,448.871521 452.153534,444.583771 455.130920,444.965027 
	C457.533203,447.042267 454.532196,451.344971 457.820740,453.733398 
	C458.000732,453.981720 457.982117,453.941254 457.982117,453.941254 
z"/>
<path fill="#000000" opacity="1.000000" stroke="none" 
	d="
M395.941132,446.884094 
	C395.587769,448.682831 393.956207,449.632141 395.839996,451.790680 
	C398.749329,455.124451 397.325592,457.892853 391.934113,460.082092 
	C394.062134,455.350861 390.742493,454.431854 387.758057,452.956818 
	C382.562866,450.389038 382.431702,446.558044 387.527710,443.252960 
	C388.463013,444.976624 386.933380,448.413727 390.602509,448.246460 
	C393.589081,444.495789 393.589081,444.495789 395.941132,446.884094 
z"/>
<path fill="#000000" opacity="1.000000" stroke="none" 
	d="
M209.568756,448.626648 
	C209.418976,446.621246 209.261368,444.993469 209.081924,443.140106 
	C212.804443,441.734039 214.968597,442.506958 215.019974,446.724792 
	C215.072495,451.038300 215.031616,455.352936 215.031616,459.690674 
	C210.292389,461.478973 208.650360,460.258148 209.236572,455.457336 
	C209.496948,453.324921 209.461868,451.156433 209.568756,448.626648 
z"/>
<path fill="#000000" opacity="1.000000" stroke="none" 
	d="
M458.013977,453.999420 
	C457.935059,445.956848 460.858795,442.157623 466.563599,442.889954 
	C468.256042,443.107208 469.856812,443.387024 470.372894,445.734558 
	C468.436554,445.673035 466.361816,443.158020 464.773254,446.148987 
	C463.155670,449.194611 464.398865,456.885406 467.113892,459.358795 
	C462.470825,460.782013 461.254517,460.110291 458.174194,454.234558 
	C457.982117,453.941254 458.000732,453.981720 458.013977,453.999420 
z"/>
<path fill="#000000" opacity="1.000000" stroke="none" 
	d="
M280.069824,450.265442 
	C280.093994,447.737823 280.093994,445.612885 280.093994,443.205383 
	C283.972137,441.724335 285.787476,442.730652 285.707733,446.929779 
	C285.626770,451.192841 285.689819,455.458588 285.689819,459.718750 
	C283.999725,461.176422 282.291565,460.694458 280.045624,459.760620 
	C280.045624,456.865326 280.045624,453.766693 280.069824,450.265442 
z"/>
<path fill="#000000" opacity="1.000000" stroke="none" 
	d="
M199.440460,450.275269 
	C199.475708,447.764069 199.475708,445.646149 199.475708,443.263000 
	C202.982269,441.819885 205.073441,442.535431 205.089005,446.813599 
	C205.094406,448.295624 205.130463,449.777588 205.134537,451.259613 
	C205.142197,454.033722 205.136734,456.807800 205.136734,459.576202 
	C200.316772,459.632599 199.999039,459.119904 199.440460,450.275269 
z"/>
<path fill="#000000" opacity="1.000000" stroke="none" 
	d="
M349.559570,447.418884 
	C349.413574,451.711823 348.689240,455.736755 351.653503,460.331116 
	C346.444427,459.895905 344.591187,457.337677 343.927307,453.518768 
	C342.955627,447.929321 345.238159,444.266235 350.190857,443.352661 
	C351.028595,444.740051 349.861938,445.843048 349.559570,447.418884 
z"/>
<path fill="#000000" opacity="1.000000" stroke="none" 
	d="
M328.207886,459.214172 
	C326.656586,460.887817 324.926697,460.816467 325.351959,458.639130 
	C326.115479,454.730103 324.641541,450.705200 326.490173,446.062286 
	C328.932434,450.578613 327.302765,454.938263 328.207886,459.214172 
z"/>
<path fill="#000000" opacity="1.000000" stroke="none" 
	d="
M284.263367,435.897430 
	C286.126678,437.781891 286.051300,439.398315 283.869019,440.374878 
	C282.227142,441.109619 280.777130,440.276306 280.569550,438.533508 
	C280.287933,436.168915 281.696136,435.293396 284.263367,435.897430 
z"/>
<path fill="#000000" opacity="1.000000" stroke="none" 
	d="
M294.986633,461.016357 
	C298.849243,460.083496 299.840454,461.842499 298.983643,465.676819 
	C298.968842,466.032288 298.999634,466.001373 299.015503,465.986176 
	C296.212830,465.968567 294.830109,464.589020 295.002014,461.358459 
	C295.027740,460.973785 295.000000,461.001831 294.986633,461.016357 
z"/>
<path fill="#000000" opacity="1.000000" stroke="none" 
	d="
M253.999588,115.362717 
	C240.003738,115.359009 226.506836,115.265121 213.012421,115.407684 
	C209.142273,115.448570 207.433746,114.099297 207.819305,110.167160 
	C208.914322,98.999840 210.921814,88.102356 216.322952,78.059097 
	C217.836746,75.244247 219.824646,73.909752 223.054810,73.919563 
	C241.882278,73.976784 260.710083,73.925621 279.537750,73.934715 
	C281.003906,73.935425 282.580261,73.753700 283.566315,75.031319 
	C284.098175,76.009163 283.799591,76.796539 283.405273,77.529526 
	C277.856812,87.843056 275.328400,99.002533 274.654510,110.560257 
	C274.412445,114.711960 272.553436,115.538040 268.993500,115.404884 
	C264.168365,115.224396 259.331390,115.361526 253.999588,115.362717 
z"/>
<path fill="#000000" opacity="1.000000" stroke="none" 
	d="
M297.000000,157.898697 
	C319.164490,157.887054 340.828949,157.867264 362.493439,157.869583 
	C368.550293,157.870224 368.951691,158.310883 368.933167,164.453674 
	C368.914185,170.754272 368.525024,171.220627 362.665710,171.221252 
	C313.170685,171.226456 263.675659,171.219559 214.180634,171.198837 
	C207.981659,171.196243 207.786346,170.950043 207.763184,164.661118 
	C207.739777,158.304886 208.040314,157.903946 214.008392,157.898590 
	C241.505569,157.873932 269.002808,157.894547 297.000000,157.898697 
z"/>
<path fill="#000000" opacity="1.000000" stroke="none" 
	d="
M317.000000,199.191925 
	C282.506531,199.195175 248.513062,199.214462 214.519699,199.163406 
	C212.326248,199.160110 209.306885,200.175583 208.306686,197.385040 
	C207.190933,194.272156 207.172302,190.745041 208.342377,187.591888 
	C209.200806,185.278595 211.738739,185.902435 213.658310,185.898117 
	C230.321640,185.860779 246.985123,185.889664 263.648560,185.887100 
	C296.308899,185.882095 328.969269,185.868027 361.629608,185.861389 
	C368.191223,185.860046 371.612762,191.810654 368.355347,197.515915 
	C367.074097,199.759949 364.889404,199.162079 362.991180,199.168076 
	C347.827576,199.215927 332.663757,199.192947 317.000000,199.191925 
z"/>
<path fill="#000000" opacity="1.000000" stroke="none" 
	d="
M351.995789,227.182343 
	C306.033142,227.178528 260.569397,227.178543 215.105637,227.166245 
	C208.510361,227.164459 205.136734,221.484375 208.141998,215.566162 
	C208.755554,214.357895 209.728912,213.907074 210.950012,213.851837 
	C212.612610,213.776611 214.278885,213.758713 215.943604,213.757996 
	C264.904541,213.736710 313.865723,213.790314 362.825989,213.599655 
	C367.915619,213.579849 369.122437,215.565002 368.987610,220.083344 
	C368.793579,226.587723 368.559906,227.112534 362.986328,227.178894 
	C359.489624,227.220551 355.991943,227.183792 351.995789,227.182343 
z"/>
<path fill="#000000" opacity="1.000000" stroke="none" 
	d="
M300.000000,143.231583 
	C271.175507,143.230530 242.850952,143.250473 214.526596,143.186218 
	C212.344803,143.181274 209.307541,144.267822 208.302719,141.475021 
	C207.185013,138.368500 207.237503,134.875839 208.364868,131.682480 
	C209.024094,129.815140 211.055679,129.973602 212.708237,129.956619 
	C217.039719,129.912140 221.371948,129.936401 225.703873,129.935379 
	C271.023071,129.924713 316.342255,129.912582 361.661438,129.906158 
	C368.209686,129.905228 371.618317,135.894012 368.355499,141.611542 
	C367.062561,143.877167 364.865051,143.197800 362.980591,143.202103 
	C342.153809,143.249649 321.326874,143.231644 300.000000,143.231583 
z"/>
<path fill="#000000" opacity="1.000000" stroke="none" 
	d="
M347.999817,101.924454 
	C353.994507,101.919075 359.490326,101.978394 364.983490,101.883728 
	C368.201508,101.828285 369.314148,103.244759 369.328278,106.424568 
	C369.366150,114.914810 369.006287,115.399704 360.481262,115.396629 
	C335.505188,115.387619 310.529114,115.367828 285.553040,115.367790 
	C282.002655,115.367783 278.411346,115.951302 278.730988,110.292091 
	C279.137268,103.099068 279.816528,101.956543 286.058716,101.947075 
	C306.539062,101.915985 327.019470,101.928642 347.999817,101.924454 
z"/>
<path fill="#000000" opacity="1.000000" stroke="none" 
	d="
M310.999878,87.395767 
	C301.893616,87.396103 293.287323,87.396103 284.721802,87.396103 
	C284.479187,78.717422 288.774170,73.958275 296.157257,73.951668 
	C321.466919,73.929016 346.776611,73.916962 372.086243,73.940521 
	C374.010284,73.942314 376.115051,73.415298 377.980011,75.340668 
	C377.190399,79.122002 375.080963,82.508385 373.410492,86.035248 
	C372.437439,88.089584 370.205780,87.400871 368.446655,87.402740 
	C349.464417,87.422989 330.482178,87.403816 310.999878,87.395767 
z"/>
</svg>